<?xml version="1.0" encoding="iso-8859-1"?>
<!-- Generator: Adobe Illustrator 21.0.0, SVG Export Plug-In . SVG Version: 6.00 Build 0)  -->
<svg version="1.1" id="money-exchange-currency-symbol"
	 xmlns="http://www.w3.org/2000/svg" xmlns:xlink="http://www.w3.org/1999/xlink" x="0px" y="0px" viewBox="0 0 64 64"
	 style="enable-background:new 0 0 64 64;" xml:space="preserve">
<path d="M31,18h2v-2c2.206,0,4-1.794,4-4s-1.794-4-4-4V4h4V2h-4V0h-2v2c-2.206,0-4,1.794-4,4s1.794,4,4,4v4h-4v2h4V18z M29,6
	c0-1.103,0.897-2,2-2v4C29.897,8,29,7.103,29,6z M33,10c1.103,0,2,0.897,2,2s-0.897,2-2,2V10z"/>
<path d="M59.492,24h-0.718c-1.224,0-2.358,0.554-3.111,1.519c-0.753,0.964-1.015,2.198-0.718,3.385
	c0.173,0.691,0.272,1.393,0.309,2.097H54v2h1.179c-0.157,1.227-0.512,2.43-1.074,3.553c-0.155,0.31-0.138,0.678,0.044,0.973
	S54.653,38,55,38h9v-2h-7.488c0.347-0.972,0.572-1.98,0.682-3H60v-2h-2.745c-0.039-0.866-0.157-1.731-0.37-2.582
	c-0.146-0.585-0.018-1.193,0.354-1.669C57.611,26.273,58.17,26,58.774,26h0.718C60.875,26,62,27.125,62,28.508V29h2v-0.492
	C64,26.022,61.978,24,59.492,24z"/>
<polygon points="36.232,49.359 32,54.438 27.768,49.359 26.232,50.641 30.698,56 29,56 29,58 31,58 31,59 29,59 29,61 31,61 31,64 
	33,64 33,61 35,61 35,59 33,59 33,58 35,58 35,56 33.302,56 37.768,50.641 "/>
<path d="M10,40c0.552,0,1-0.447,1-1v-2H9v1H8c-2.045,0-3.802-1.237-4.576-3H9v-2H3c0-0.342,0.035-0.677,0.101-1H9v-2H4.026
	C4.939,28.793,6.373,28,8,28h1v1h2v-2c0-0.553-0.448-1-1-1H8c-2.785,0-5.189,1.639-6.315,4H0v2h1.08C1.033,32.328,1,32.66,1,33H0v2
	h1.295C2.158,37.887,4.835,40,8,40H10z"/>
<path d="M5.6,22.667l1.886,0.666c2.592-7.331,8.516-13.256,15.848-15.849L22.667,5.6C14.653,8.433,8.433,14.653,5.6,22.667z"/>
<path d="M7.485,40.667L5.6,41.333c2.833,8.014,9.054,14.234,17.067,17.067l0.667-1.885C16.001,53.923,10.077,47.998,7.485,40.667z"
	/>
<path d="M58.4,41.333l-1.886-0.666c-2.592,7.331-8.516,13.256-15.848,15.849l0.667,1.885C49.347,55.567,55.567,49.347,58.4,41.333z"
	/>
<path d="M56.515,23.333l1.886-0.666C55.567,14.653,49.347,8.433,41.333,5.6l-0.667,1.885C47.999,10.077,53.923,16.002,56.515,23.333
	z"/>
<rect y="12" width="2" height="2"/>
<rect x="4" y="12" width="2" height="2"/>
<rect y="8" width="2" height="2"/>
<rect x="4" y="8" width="2" height="2"/>
<rect x="8" y="8" width="2" height="2"/>
<rect y="4" width="2" height="2"/>
<rect x="4" y="4" width="2" height="2"/>
<rect x="8" y="4" width="2" height="2"/>
<rect width="2" height="2"/>
<rect x="4" width="2" height="2"/>
<rect x="8" width="2" height="2"/>
<rect x="12" y="4" width="2" height="2"/>
<rect x="12" width="2" height="2"/>
<rect x="16" width="2" height="2"/>
<rect x="62" y="12" width="2" height="2"/>
<rect x="58" y="12" width="2" height="2"/>
<rect x="62" y="8" width="2" height="2"/>
<rect x="58" y="8" width="2" height="2"/>
<rect x="54" y="8" width="2" height="2"/>
<rect x="62" y="4" width="2" height="2"/>
<rect x="58" y="4" width="2" height="2"/>
<rect x="54" y="4" width="2" height="2"/>
<rect x="62" width="2" height="2"/>
<rect x="58" width="2" height="2"/>
<rect x="54" width="2" height="2"/>
<rect x="50" y="4" width="2" height="2"/>
<rect x="50" width="2" height="2"/>
<rect x="46" width="2" height="2"/>
<rect x="62" y="50" width="2" height="2"/>
<rect x="58" y="50" width="2" height="2"/>
<rect x="62" y="54" width="2" height="2"/>
<rect x="58" y="54" width="2" height="2"/>
<rect x="54" y="54" width="2" height="2"/>
<rect x="62" y="58" width="2" height="2"/>
<rect x="58" y="58" width="2" height="2"/>
<rect x="54" y="58" width="2" height="2"/>
<rect x="62" y="62" width="2" height="2"/>
<rect x="58" y="62" width="2" height="2"/>
<rect x="54" y="62" width="2" height="2"/>
<rect x="50" y="58" width="2" height="2"/>
<rect x="46" y="58" width="2" height="2"/>
<rect x="50" y="62" width="2" height="2"/>
<rect x="46" y="62" width="2" height="2"/>
<rect y="50" width="2" height="2"/>
<rect x="4" y="50" width="2" height="2"/>
<rect y="54" width="2" height="2"/>
<rect x="4" y="54" width="2" height="2"/>
<rect x="8" y="54" width="2" height="2"/>
<rect y="58" width="2" height="2"/>
<rect x="4" y="58" width="2" height="2"/>
<rect x="8" y="58" width="2" height="2"/>
<rect y="62" width="2" height="2"/>
<rect x="4" y="62" width="2" height="2"/>
<rect x="8" y="62" width="2" height="2"/>
<rect x="12" y="58" width="2" height="2"/>
<rect x="12" y="62" width="2" height="2"/>
<rect x="16" y="62" width="2" height="2"/>
<path d="M34.369,29.887l5.145,3.087c0.161,0.097,0.338,0.143,0.514,0.143c0.34,0,0.671-0.173,0.858-0.485l3.087-5.146l-1.715-1.029
	l-1.686,2.81C39.412,25.637,36.009,23,32,23c-4.962,0-9,4.037-9,9s4.038,9,9,9c3.203,0,6.19-1.724,7.795-4.499l-1.731-1.002
	C36.815,37.658,34.491,39,32,39c-3.86,0-7-3.141-7-7s3.14-7,7-7c3.231,0,5.95,2.204,6.753,5.184l-3.354-2.012L34.369,29.887z"/>
</svg>
